<?xml version="1.0" standalone="no"?>
<svg xmlns:xlink="http://www.w3.org/1999/xlink" id="wave" style="transform:rotate(0deg); transition: 0.3s" viewBox="0 0 1440 110" version="1.1" xmlns="http://www.w3.org/2000/svg"><defs><linearGradient id="sw-gradient-0" x1="0" x2="0" y1="1" y2="0"><stop stop-color="rgba(121, 27, 118, 1)" offset="0%"/><stop stop-color="rgba(243, 20, 147, 1)" offset="100%"/></linearGradient></defs><path style="transform:translate(0, 0px); opacity:1" fill="url(#sw-gradient-0)" d="M0,22L80,34.8C160,48,320,73,480,82.5C640,92,800,84,960,67.8C1120,51,1280,26,1440,22C1600,18,1760,37,1920,51.3C2080,66,2240,77,2400,75.2C2560,73,2720,59,2880,47.7C3040,37,3200,29,3360,25.7C3520,22,3680,22,3840,29.3C4000,37,4160,51,4320,58.7C4480,66,4640,66,4800,67.8C4960,70,5120,73,5280,66C5440,59,5600,40,5760,31.2C5920,22,6080,22,6240,33C6400,44,6560,66,6720,77C6880,88,7040,88,7200,86.2C7360,84,7520,81,7680,82.5C7840,84,8000,92,8160,80.7C8320,70,8480,40,8640,27.5C8800,15,8960,18,9120,25.7C9280,33,9440,44,9600,45.8C9760,48,9920,40,10080,38.5C10240,37,10400,40,10560,45.8C10720,51,10880,59,11040,53.2C11200,48,11360,29,11440,20.2L11520,11L11520,110L11440,110C11360,110,11200,110,11040,110C10880,110,10720,110,10560,110C10400,110,10240,110,10080,110C9920,110,9760,110,9600,110C9440,110,9280,110,9120,110C8960,110,8800,110,8640,110C8480,110,8320,110,8160,110C8000,110,7840,110,7680,110C7520,110,7360,110,7200,110C7040,110,6880,110,6720,110C6560,110,6400,110,6240,110C6080,110,5920,110,5760,110C5600,110,5440,110,5280,110C5120,110,4960,110,4800,110C4640,110,4480,110,4320,110C4160,110,4000,110,3840,110C3680,110,3520,110,3360,110C3200,110,3040,110,2880,110C2720,110,2560,110,2400,110C2240,110,2080,110,1920,110C1760,110,1600,110,1440,110C1280,110,1120,110,960,110C800,110,640,110,480,110C320,110,160,110,80,110L0,110Z"/></svg>